<svg width="60" height="60" viewBox="0 0 60 60" fill="none" xmlns="http://www.w3.org/2000/svg">
<path d="M57.2727 42.0967V51.7741H2.72729V42.0967M4.8182 36.0483L2.72729 39.4574H57.2727L55.1818 36.0483M4.8182 29.3401L2.72729 32.7492H57.2727L55.1818 29.3401M7.566 42.0967V48.695M52.434 42.0967V48.695M33.739 42.0967V48.695M15.044 42.0967V48.695M11.305 42.0967V48.695M18.783 42.0967V48.695M26.261 42.0967V48.695M37.478 42.0967V48.695M48.695 42.0967V48.695M44.956 42.0967V48.695M41.217 42.0967V48.695M30 42.0967V48.695M22.522 42.0967V48.695M12.8446 9.54541H47.1554L57.2727 26.041H2.72729L12.8446 9.54541Z" stroke="#E4332C"/>
<rect x="17.2434" y="12.7346" width="0.989736" height="0.989736" fill="#E4332C"/>
<rect x="15.374" y="17.4634" width="0.989736" height="0.989736" fill="#E4332C"/>
<rect x="13.3945" y="22.1921" width="0.989736" height="0.989736" fill="#E4332C"/>
<rect x="41.7668" y="12.7346" width="0.989736" height="0.989736" fill="#E4332C"/>
<rect x="43.6365" y="17.4634" width="0.989736" height="0.989736" fill="#E4332C"/>
<rect x="45.616" y="22.1921" width="0.989736" height="0.989736" fill="#E4332C"/>
<rect x="33.2991" y="12.7346" width="0.989736" height="0.989736" fill="#E4332C"/>
<rect x="34.179" y="17.4634" width="0.989736" height="0.989736" fill="#E4332C"/>
<rect x="35.2786" y="22.1921" width="0.989736" height="0.989736" fill="#E4332C"/>
<rect x="25.7112" y="12.7346" width="0.989736" height="0.989736" fill="#E4332C"/>
<rect x="24.8313" y="17.4634" width="0.989736" height="0.989736" fill="#E4332C"/>
<rect x="23.7317" y="22.1921" width="0.989736" height="0.989736" fill="#E4332C"/>
</svg>
