<svg width="42" height="35" viewBox="0 0 42 35" fill="none" xmlns="http://www.w3.org/2000/svg">
<path d="M9.66397 7.47773V20.4332L21 26.9109M9.66397 7.47773L21 1L32.336 7.47773M9.66397 7.47773L21 13.9555M32.336 7.47773V20.4332L21 26.9109M32.336 7.47773L21 13.9555M21 26.9109V13.9555M6.74158 15.8988C3.19069 17.6598 1 20.0755 1 22.7409C1 28.1296 9.9543 32.498 21 32.498C26.3336 32.498 31.1795 31.4795 34.7652 29.8193M35.2584 15.8988C38.8093 17.6598 41 20.0755 41 22.7409C41 24.819 39.6683 26.7453 37.3986 28.3279M34.7652 29.8193L29.502 34.3603M34.7652 29.8193L27.8016 29.4615" stroke="currentColor"/>
</svg>
