<svg width="32" height="32" viewBox="0 0 32 32" fill="none" xmlns="http://www.w3.org/2000/svg">
<path d="M16.0032 0.761719H15.996C8.0142 0.761719 1.52344 7.25429 1.52344 15.2379C1.52344 18.4046 2.54401 21.3396 4.27934 23.7228L2.47525 29.1007L8.03953 27.3219C10.3286 28.8383 13.0592 29.7141 16.0032 29.7141C23.9851 29.7141 30.4758 23.2197 30.4758 15.2379C30.4758 7.2561 23.9851 0.761719 16.0032 0.761719Z" fill="#4CAF50"/>
<path d="M24.0814 20.8147C23.74 21.7562 22.3848 22.5371 21.3038 22.7652C20.5643 22.9189 19.5983 23.0416 16.3465 21.7251C12.1872 20.0424 9.50863 15.9152 9.29987 15.6474C9.09995 15.3796 7.61914 13.4619 7.61914 11.4786C7.61914 9.49533 8.65058 8.52959 9.06634 8.11497C9.40779 7.77463 9.97216 7.61914 10.5135 7.61914C10.6887 7.61914 10.8461 7.62778 10.9877 7.63469C11.4034 7.65197 11.6122 7.67615 11.8864 8.3171C12.2279 9.12044 13.0594 11.1037 13.1585 11.3076C13.2593 11.5115 13.3602 11.7879 13.2186 12.0557C13.0859 12.3321 12.9692 12.4547 12.7604 12.6897C12.5516 12.9246 12.3535 13.1043 12.1447 13.3566C11.9537 13.576 11.7378 13.8109 11.9784 14.2169C12.219 14.6143 13.0505 15.9393 14.2748 17.0036C15.8547 18.377 17.1356 18.8158 17.5938 19.0024C17.9353 19.1406 18.3422 19.1078 18.5916 18.8486C18.9083 18.5152 19.2993 17.9624 19.6974 17.4182C19.9805 17.0277 20.3378 16.9794 20.7129 17.1176C21.095 17.2471 23.1172 18.2232 23.533 18.4254C23.9487 18.6292 24.223 18.726 24.3238 18.897C24.4229 19.0681 24.4229 19.8714 24.0814 20.8147Z" fill="#FAFAFA"/>
</svg>
