<svg width="32" height="32" viewBox="0 0 32 32" fill="none" xmlns="http://www.w3.org/2000/svg">
<g clip-path="url(#clip0_209_614)">
<path d="M19.2002 0H12.8C6.62378 0 1.59961 5.02418 1.59961 11.2004V16.0006C1.59961 20.3407 4.0997 24.2728 7.99983 26.1249V31.4731C7.99983 31.9371 8.57985 32.1771 8.90786 31.8491L13.556 27.2049H19.2002C25.3764 27.2049 30.4006 22.1808 30.4006 16.0006V11.2004C30.4006 5.02418 25.3764 0 19.2002 0ZM23.3924 20.9931L21.7723 22.5772C20.0683 24.2452 15.6201 22.3412 11.7 18.337C7.77982 14.3289 6.05976 9.84074 7.67982 8.17268L9.29988 6.58863C9.8959 6.00461 10.9079 6.01661 11.576 6.61263L13.912 9.00071C14.7441 9.85274 14.3921 11.2808 13.292 11.6088C12.532 11.8528 12.016 12.6888 12.26 13.4489C12.664 15.2249 14.9161 17.445 16.5961 17.885C17.3522 18.061 18.2002 17.649 18.4642 16.893C18.8122 15.801 20.2483 15.4769 21.0843 16.333L23.4164 18.7171C24.0004 19.3127 23.9924 20.3251 23.3924 20.9931ZM17.4562 7.60026C17.2962 7.60026 17.1361 7.60826 16.9801 7.62827C16.6881 7.66027 16.4241 7.44826 16.3921 7.15625C16.3601 6.86424 16.5721 6.60023 16.8641 6.56823C17.0601 6.54423 17.2602 6.53623 17.4562 6.53623C20.3963 6.53623 22.7883 8.92831 22.7883 11.8684C22.7883 12.0644 22.7803 12.2644 22.7563 12.4604C22.7243 12.7484 22.4563 12.9645 22.1683 12.9325C21.8803 12.9004 21.6643 12.6324 21.6963 12.3444C21.7123 12.1884 21.7243 12.0284 21.7243 11.8684C21.7243 9.51633 19.8082 7.60026 17.4562 7.60026ZM20.6563 11.8684C20.6563 12.1604 20.4123 12.4004 20.1203 12.4004C19.8322 12.4004 19.5882 12.1604 19.5882 11.8684C19.5882 10.6924 18.6322 9.73634 17.4562 9.73634C17.1601 9.73634 16.9201 9.49633 16.9201 9.20032C16.9201 8.90831 17.1601 8.6683 17.4562 8.6683C19.2202 8.6683 20.6563 10.1044 20.6563 11.8684ZM24.7244 13.5925C24.6564 13.8805 24.3484 14.0605 24.0644 13.9845C23.7884 13.9085 23.6204 13.6205 23.6844 13.3445C23.8004 12.8644 23.8564 12.3684 23.8564 11.8684C23.8564 8.34029 20.9843 5.46819 17.4562 5.46819C17.2922 5.46819 17.1241 5.47219 16.9601 5.48819C16.6681 5.50819 16.4121 5.28818 16.3881 4.99617C16.3681 4.70016 16.5881 4.44415 16.8801 4.42415C17.0721 4.40815 17.2642 4.40015 17.4562 4.40015C21.5723 4.40015 24.9244 7.75227 24.9244 11.8684C24.9244 12.4484 24.8564 13.0285 24.7244 13.5925Z" fill="#665CAC"/>
</g>
<defs>
<clipPath id="clip0_209_614">
<rect width="32" height="32" fill="white"/>
</clipPath>
</defs>
</svg>
