<svg width="32" height="32" viewBox="0 0 32 32" fill="none" xmlns="http://www.w3.org/2000/svg">
<g clip-path="url(#clip0_209_608)">
<path d="M15.9998 31.2379C24.4156 31.2379 31.2379 24.4156 31.2379 15.9998C31.2379 7.58405 24.4156 0.761719 15.9998 0.761719C7.58405 0.761719 0.761719 7.58405 0.761719 15.9998C0.761719 24.4156 7.58405 31.2379 15.9998 31.2379Z" fill="#039BE5"/>
<path d="M7.6379 15.5661L22.503 9.97275C23.1929 9.72951 23.7955 10.137 23.5719 11.1551L23.5732 11.1539L21.0422 22.7906C20.8546 23.6156 20.3522 23.8162 19.6495 23.4275L15.7951 20.6553L13.936 22.4032C13.7304 22.6038 13.557 22.7731 13.1587 22.7731L13.4323 18.9451L20.5758 12.6472C20.8867 12.3801 20.5064 12.2296 20.0966 12.4954L11.2687 17.9195L7.46317 16.761C6.63705 16.5052 6.61906 15.9548 7.6379 15.5661Z" fill="white"/>
</g>
<defs>
<clipPath id="clip0_209_608">
<rect width="32" height="32" fill="white"/>
</clipPath>
</defs>
</svg>
