<svg width="42" height="33" viewBox="0 0 42 33" fill="none" xmlns="http://www.w3.org/2000/svg">
<path d="M41 24.871V31.9677H1V24.871M2.53333 20.4355L1 22.9355H41L39.4667 20.4355M2.53333 15.5161L1 18.0161H41L39.4667 15.5161M4.54839 24.871V29.7097M37.4516 24.871V29.7097M23.7419 24.871V29.7097M10.0323 24.871V29.7097M7.29032 24.871V29.7097M12.7742 24.871V29.7097M18.2581 24.871V29.7097M26.4839 24.871V29.7097M34.7097 24.871V29.7097M31.9677 24.871V29.7097M29.2258 24.871V29.7097M21 24.871V29.7097M15.5161 24.871V29.7097M8.41935 1H33.5806L41 13.0968H1L8.41935 1Z" stroke="currentColor"/>
</svg>
