<svg width="160" height="57" viewBox="0 0 160 57" fill="none" xmlns="http://www.w3.org/2000/svg">
<g clip-path="url(#clip0_662_12392)">
<path d="M0.271803 24.7961C-0.022121 22.7499 0.598008 20.9817 1.74482 19.3703C3.33677 17.1332 5.48258 15.527 7.80169 14.1271C12.3397 11.3835 17.2633 9.55047 22.2974 7.98857C30.4375 5.49572 38.7746 3.70395 47.2181 2.63274C53.8866 1.76824 60.5874 1.14586 67.2797 0.54395C75.3787 -0.184143 83.4931 -0.138105 91.6023 0.405834C106.107 1.36412 120.48 3.1511 134.529 7.01835C141.06 8.81727 147.453 10.9913 153.218 14.6608C155.426 16.0675 157.438 17.73 158.824 20.0098C159.713 21.4728 160.166 23.0517 159.932 24.8012C159.833 24.7807 159.762 24.7842 159.749 24.7586C157.856 20.7652 154.5 18.2944 150.805 16.221C145.385 13.179 139.524 11.2761 133.543 9.7244C124.026 7.26048 114.341 5.82305 104.554 4.90739C94.9986 4.0139 85.4265 3.57398 75.8409 3.76495C66.053 3.95934 56.3026 4.61752 46.5878 5.93047C38.1727 7.06439 29.8443 8.61436 21.7198 11.1226C16.7638 12.6572 11.9353 14.5039 7.53835 17.3259C4.58722 19.2152 1.97588 21.437 0.46039 24.7074C0.4434 24.7432 0.370344 24.7518 0.271803 24.7961Z" fill="#E4332C"/>
<path d="M136.562 29.3813V27.1271H156.707C158.844 27.1271 159.611 27.8996 159.611 30.0497C159.611 30.5067 159.611 30.9398 159.611 31.4138C159.611 32.0669 159.573 32.986 158.795 32.986C158.525 32.986 158.532 33.4191 158.776 33.4191C159.478 33.4191 159.578 34.3688 159.578 35.0356C159.578 35.8591 159.566 36.6844 159.566 37.5046C159.548 38.9352 158.668 39.873 157.246 39.8764C150.57 39.8918 143.893 39.8764 137.216 39.8901C136.715 39.8901 136.491 39.7537 136.491 39.1517C136.491 37.6785 136.491 37.6598 137.898 37.6598C144.014 37.6598 150.118 37.6427 156.23 37.6734C157.042 37.6734 157.274 37.4517 157.274 36.6264C157.274 36.0586 157.274 35.484 157.274 34.9213C157.274 34.2069 157.059 33.9988 156.359 34.0057C153.131 34.0363 149.903 34.0193 146.675 34.0193C143.591 34.0193 140.512 34.0449 137.425 34.0449C136.53 34.0449 136.469 33.506 136.469 32.824C136.469 32.0857 136.639 31.7225 137.452 31.7225C143.751 31.7225 150.013 31.7498 156.292 31.7344C156.622 31.7344 157.234 31.7054 157.234 31.3934V29.7923C157.234 29.4325 156.71 29.4035 156.444 29.4035C151.068 29.3899 145.693 29.383 140.319 29.383L136.562 29.3813Z" fill="#E4332C"/>
<path d="M133.263 26.9806V29.7276C133.263 32.1659 133.263 34.606 133.263 37.0443C133.263 38.509 132.353 39.4793 130.907 39.4827C123.752 39.4997 112.502 39.4997 109.444 39.4997C108.881 39.4997 108.725 39.307 108.725 38.7495C108.725 38.5517 108.725 38.3692 108.725 38.1544C108.725 37.3785 108.997 37.2097 109.681 37.2097C116.44 37.2347 123.199 37.2347 129.957 37.2097C130.409 37.2097 130.944 37.1074 130.944 36.7664C130.944 36.0946 130.944 35.7996 130.944 35.138C130.944 34.768 130.307 34.7748 130.006 34.7748C124.464 34.7668 118.922 34.7668 113.38 34.7748C112.447 34.7748 111.511 34.7901 110.58 34.7594C109.454 34.7236 108.513 33.9597 108.46 32.8361C108.373 30.9741 108.436 29.1052 108.436 27.1563H110.682V31.2042C110.682 32.5411 110.682 32.5411 112.006 32.5411C118 32.5411 123.995 32.5257 129.989 32.5598C130.808 32.5598 131.038 32.333 131.038 31.5163C131.038 30.3125 131.01 29.0694 131.01 27.8588C131.01 27.1426 131.25 26.967 131.945 26.967C132.351 26.9721 132.81 26.9806 133.263 26.9806Z" fill="#E4332C"/>
<path d="M38.9065 39.8879H29.3192C27.7901 39.8879 26.8624 39.0353 26.8455 37.5007C26.8171 34.8054 26.8171 32.1108 26.8455 29.4166C26.859 28.0338 27.7884 27.1301 29.1595 27.1283C35.6654 27.1215 42.1703 27.1215 48.674 27.1283C50.1861 27.1283 51.0899 28.0611 51.095 29.5837C51.103 32.1096 51.103 34.6343 51.095 37.158C51.095 39.0336 50.2625 39.8708 48.4157 39.8742C45.2443 39.8742 42.0768 39.8742 38.9133 39.8742L38.9065 39.8879ZM39.0476 29.3928C35.9894 29.3928 32.9448 29.4047 29.8934 29.3928C29.2954 29.3928 29.0337 29.5394 29.0439 30.201C29.0796 32.4398 29.0711 34.6787 29.0524 36.9175C29.0524 37.4632 29.2308 37.6695 29.7847 37.6678C35.8863 37.6553 41.9885 37.6553 48.0912 37.6678C48.6383 37.6678 48.8371 37.4836 48.8337 36.9295C48.8184 34.6906 48.8184 32.4518 48.8558 30.2129C48.866 29.582 48.6638 29.3808 48.0318 29.3859C45.0365 29.4081 42.0412 29.3928 39.0476 29.3928Z" fill="#E4332C"/>
<path d="M93.0417 27.1267H102.969C104.863 27.1267 105.708 27.969 105.718 29.877C105.718 30.8694 105.718 31.8635 105.718 32.8559C105.696 34.561 104.844 35.4221 103.149 35.4238C97.2093 35.4238 91.2696 35.4238 85.33 35.4238C84.2019 35.4238 84.2002 35.4238 84.2002 36.5288C84.2002 37.4308 84.2087 38.3311 84.2087 39.257C84.2087 39.8231 84.0388 39.9953 83.473 39.9953C83.2755 39.9851 83.0776 39.9851 82.8801 39.9953C82.073 39.9953 81.9133 39.8043 81.9201 39.0507C81.9575 35.3914 81.9524 31.7322 81.9201 28.073C81.9201 27.3517 82.09 27.0977 82.8631 27.1079C86.261 27.1539 89.6505 27.1284 93.0451 27.1284L93.0417 27.1267ZM103.439 30.0254C103.439 29.5991 103.049 29.3962 102.632 29.3962C96.8094 29.3962 90.9865 29.3922 85.1635 29.3843H84.7659C84.6212 29.403 84.4876 29.4719 84.388 29.579C84.2884 29.6861 84.2292 29.8246 84.2205 29.9708C84.2205 30.716 84.2375 31.4696 84.2375 32.1875C84.2375 33.0742 84.421 33.2225 85.2263 33.2106C90.6818 33.1782 96.1372 33.1935 101.593 33.1935H102.86C102.933 33.1954 103.005 33.1825 103.073 33.1556C103.14 33.1288 103.202 33.0885 103.253 33.0372C103.305 32.986 103.346 32.9248 103.374 32.8573C103.401 32.7898 103.415 32.7174 103.414 32.6445C103.414 31.5958 103.439 31.1542 103.439 30.0237V30.0254Z" fill="#E4332C"/>
<path d="M23.9709 37.6579C24.0814 37.6579 24.0865 37.7977 24.0865 37.8659C24.0865 39.8729 24.0678 39.8797 22.3246 39.8797H2.81012C0.771338 39.8797 0.0118929 39.1056 0.00679593 37.0441C0.00226531 34.6285 0 32.2168 0 29.8092C0 27.9949 0.857986 27.1338 2.64192 27.1321C9.42992 27.1321 16.2174 27.1321 23.0042 27.1321H23.7858C23.9285 27.1321 23.9302 27.2839 23.9302 27.3504C23.9302 29.3675 23.9828 29.3795 22.1768 29.3795C16.0118 29.3795 9.84617 29.3795 3.68 29.3795C2.02519 29.3795 2.26135 29.2465 2.25115 30.8527C2.23926 32.7539 2.25115 34.6552 2.25115 36.5547C2.25115 37.6528 2.25115 37.6545 3.38777 37.6545H23.9709V37.6579Z" fill="#E4332C"/>
<path d="M79.491 27.1336C78.4937 29.0843 77.6221 30.8576 76.6775 32.59C76.2935 33.2994 76.2358 33.8689 76.6673 34.614C77.6425 36.2987 78.4971 38.0533 79.4876 39.9443C78.6194 39.9443 77.8974 39.9852 77.1855 39.917C76.9799 39.8982 76.7472 39.5913 76.6248 39.3645C75.9282 38.0669 75.2402 36.7625 74.5945 35.4427C74.3499 34.9397 74.0373 34.7607 73.4783 34.7607C67.8796 34.7777 62.282 34.7777 56.6856 34.7607C56.006 34.7607 55.8361 35.0028 55.8361 35.6525C55.8361 36.829 55.8599 37.98 55.8599 39.1395C55.8599 39.7789 55.7528 39.9681 55.0443 39.9681H54.9594C53.6002 39.9681 53.5781 39.934 53.5781 38.6211C53.5781 35.1904 53.5781 31.7591 53.5781 28.3272V27.2819H55.8531C55.8531 28.6085 55.8531 29.901 55.8531 31.2038C55.8531 32.5525 55.8531 32.5525 57.1647 32.5525C62.508 32.5525 67.8513 32.5338 73.1929 32.573C74.0016 32.573 74.4076 32.3036 74.722 31.5908C75.2843 30.3239 75.9622 29.1064 76.5399 27.8395C76.7879 27.2939 77.1158 27.0688 77.7088 27.1234C78.227 27.1711 78.7621 27.1336 79.491 27.1336Z" fill="#E4332C"/>
<path d="M80.15 44.8727H5.68188C5.58098 44.8675 5.48584 44.8239 5.41578 44.7508C5.34573 44.6778 5.30602 44.5807 5.30472 44.4793C5.30342 44.3779 5.34063 44.2798 5.4088 44.205C5.47696 44.1301 5.57095 44.0842 5.67168 44.0764H6.32919C55.5249 44.0764 104.721 44.0815 153.916 44.0917C154.273 44.0917 154.936 44.0508 154.936 44.5555C154.936 44.8965 154.272 44.8573 153.899 44.8573C129.316 44.8744 104.733 44.8795 80.15 44.8727Z" fill="#E4332C"/>
<path d="M154.824 4.7135L156.429 7.23168H157.529L155.756 4.7135H154.824ZM153.608 1.80792V7.23168H154.527V1.80792H153.608ZM154.151 2.59566H155.238C155.557 2.59566 155.812 2.67314 156.002 2.8281C156.2 2.97446 156.299 3.19399 156.299 3.4867C156.299 3.77941 156.2 4.00325 156.002 4.15822C155.812 4.31318 155.557 4.39066 155.238 4.39066H154.151V5.13966H155.29C155.877 5.13966 156.347 4.989 156.7 4.68768C157.063 4.37775 157.244 3.96881 157.244 3.46087C157.244 2.97015 157.063 2.57413 156.7 2.27281C156.347 1.96288 155.877 1.80792 155.29 1.80792H154.151V2.59566ZM151.395 4.64894C151.395 4.07212 151.494 3.54266 151.693 3.06055C151.891 2.56983 152.167 2.14368 152.521 1.78209C152.883 1.42051 153.302 1.14071 153.776 0.942701C154.259 0.744691 154.781 0.645686 155.342 0.645686C155.903 0.645686 156.42 0.744691 156.895 0.942701C157.378 1.14071 157.796 1.42051 158.15 1.78209C158.512 2.14368 158.792 2.56983 158.991 3.06055C159.189 3.54266 159.288 4.07212 159.288 4.64894C159.288 5.22575 159.189 5.75952 158.991 6.25024C158.792 6.73235 158.512 7.1542 158.15 7.51578C157.796 7.87736 157.378 8.15716 156.895 8.35517C156.42 8.55318 155.903 8.65219 155.342 8.65219C154.781 8.65219 154.259 8.55318 153.776 8.35517C153.302 8.15716 152.883 7.87736 152.521 7.51578C152.167 7.1542 151.891 6.73235 151.693 6.25024C151.494 5.75952 151.395 5.22575 151.395 4.64894ZM150.684 4.64894C150.684 5.32045 150.8 5.94031 151.033 6.50851C151.274 7.07671 151.602 7.57174 152.016 7.99359C152.439 8.40683 152.935 8.72967 153.504 8.96212C154.074 9.18595 154.686 9.29787 155.342 9.29787C156.006 9.29787 156.619 9.18595 157.179 8.96212C157.749 8.72967 158.24 8.40683 158.654 7.99359C159.077 7.57174 159.405 7.07671 159.638 6.50851C159.879 5.94031 160 5.32045 160 4.64894C160 3.97742 159.879 3.35757 159.638 2.78936C159.405 2.22116 159.077 1.73044 158.654 1.3172C158.24 0.895351 157.749 0.572508 157.179 0.34867C156.619 0.116223 156.006 0 155.342 0C154.686 0 154.074 0.116223 153.504 0.34867C152.935 0.572508 152.439 0.895351 152.016 1.3172C151.602 1.73044 151.274 2.22116 151.033 2.78936C150.8 3.35757 150.684 3.97742 150.684 4.64894Z" fill="#3D4248"/>
<path d="M24.5661 50.9305L27.2798 55.7768L29.9934 50.9305L30.6123 56.5489H31.624L30.6123 47.8184L27.2798 53.8407L23.9472 47.8184L22.9355 56.5489H23.9472L24.5661 50.9305Z" fill="#3D4248"/>
<path d="M33.9635 56.5489H38.1649V55.5986H33.9635V56.5489ZM33.9635 49.1844H38.1649V48.2342H33.9635V49.1844ZM33.9635 52.5103H37.9269V51.5601H33.9635V52.5103ZM33.4041 48.2342V56.5489H34.4158V48.2342H33.4041Z" fill="#3D4248"/>
<path d="M40.8643 52.5103H42.5663C42.9234 52.5103 43.2368 52.5697 43.5065 52.6885C43.7843 52.7993 43.9985 52.9696 44.1493 53.1992C44.3079 53.4289 44.3873 53.714 44.3873 54.0545C44.3873 54.395 44.3079 54.6801 44.1493 54.9097C43.9985 55.1393 43.7843 55.3136 43.5065 55.4323C43.2368 55.5432 42.9234 55.5986 42.5663 55.5986H40.8643V56.5489H42.5663C43.1059 56.5489 43.5859 56.4499 44.0064 56.2519C44.4349 56.046 44.7721 55.757 45.0181 55.3848C45.272 55.0047 45.399 54.5613 45.399 54.0545C45.399 53.5398 45.272 53.0963 45.0181 52.7241C44.7721 52.3519 44.4349 52.0669 44.0064 51.8689C43.5859 51.663 43.1059 51.5601 42.5663 51.5601H40.8643V52.5103ZM40.3049 48.2342V56.5489H41.3166V49.1844H44.7682V48.2342H40.3049Z" fill="#3D4248"/>
<path d="M47.7419 56.5489H51.9433V55.5986H47.7419V56.5489ZM47.7419 49.1844H51.9433V48.2342H47.7419V49.1844ZM47.7419 52.5103H51.7052V51.5601H47.7419V52.5103ZM47.1825 48.2342V56.5489H48.1941V48.2342H47.1825Z" fill="#3D4248"/>
<path d="M60.0104 48.2342H54.357V53.4606C54.357 53.7773 54.3332 54.0703 54.2856 54.3395C54.238 54.6088 54.1666 54.8464 54.0714 55.0522C53.9762 55.2502 53.8611 55.4046 53.7262 55.5155C53.5913 55.6264 53.4326 55.6818 53.2501 55.6818V56.5489C53.7024 56.5489 54.0793 56.4182 54.3808 56.1569C54.6903 55.8956 54.9204 55.5472 55.0711 55.1116C55.2298 54.6761 55.3092 54.2049 55.3092 53.6981V49.1844H58.9988V56.5489H60.0104V48.2342Z" fill="#3D4248"/>
<path d="M62.2742 48.2342V56.5489H63.2859V48.2342H62.2742ZM62.8336 52.5103H64.5356C64.8927 52.5103 65.2061 52.5697 65.4758 52.6885C65.7536 52.7993 65.9678 52.9696 66.1185 53.1992C66.2772 53.4289 66.3566 53.714 66.3566 54.0545C66.3566 54.395 66.2772 54.6801 66.1185 54.9097C65.9678 55.1393 65.7536 55.3136 65.4758 55.4323C65.2061 55.5432 64.8927 55.5986 64.5356 55.5986H62.8336V56.5489H64.5356C65.0751 56.5489 65.5552 56.4499 65.9757 56.2519C66.4042 56.046 66.7414 55.757 66.9874 55.3848C67.2413 55.0047 67.3683 54.5613 67.3683 54.0545C67.3683 53.5398 67.2413 53.0963 66.9874 52.7241C66.7414 52.3519 66.4042 52.0669 65.9757 51.8689C65.5552 51.663 65.0751 51.5601 64.5356 51.5601H62.8336V52.5103Z" fill="#3D4248"/>
<path d="M77.5998 52.0352L77.6593 50.6692L73.1366 55.5986L73.0771 56.9646L77.5998 52.0352ZM74.0292 51.0849H73.0771V56.9646L74.0292 55.658V51.0849ZM77.6593 50.6692L76.7072 51.9758V56.5489H77.6593V50.6692Z" fill="#3D4248"/>
<path d="M84.9996 50.9305L87.7132 55.7768L90.4269 50.9305L91.0458 56.5489H92.0574L91.0458 47.8184L87.7132 53.8407L84.3807 47.8184L83.369 56.5489H84.3807L84.9996 50.9305Z" fill="#3D4248"/>
<path d="M94.9953 54.0545H99.399L99.042 53.1042H95.3524L94.9953 54.0545ZM97.1734 50.1109L98.6016 53.4606L98.6968 53.6981L99.9108 56.5489H101.042L97.1734 47.8184L93.3053 56.5489H94.4359L95.6738 53.6269L95.769 53.413L97.1734 50.1109Z" fill="#3D4248"/>
<path d="M100.742 49.1844H102.884V56.5489H103.896V49.1844H106.038V48.2342H100.742V49.1844Z" fill="#3D4248"/>
<path d="M107.465 48.2342V56.5489H108.477V48.2342H107.465ZM108.024 49.1844H109.726C110.083 49.1844 110.397 49.2438 110.666 49.3626C110.944 49.4734 111.158 49.6437 111.309 49.8733C111.468 50.103 111.547 50.3881 111.547 50.7286C111.547 51.0691 111.468 51.3542 111.309 51.5838C111.158 51.8135 110.944 51.9877 110.666 52.1064C110.397 52.2173 110.083 52.2727 109.726 52.2727H108.024V53.223H109.726C110.266 53.223 110.746 53.124 111.166 52.926C111.595 52.7202 111.932 52.4311 112.178 52.0589C112.432 51.6788 112.559 51.2354 112.559 50.7286C112.559 50.2139 112.432 49.7704 112.178 49.3982C111.932 49.026 111.595 48.741 111.166 48.543C110.746 48.3371 110.266 48.2342 109.726 48.2342H108.024V49.1844Z" fill="#3D4248"/>
<path d="M114.303 54.0545H118.707L118.35 53.1042H114.66L114.303 54.0545ZM116.481 50.1109L117.909 53.4606L118.004 53.6981L119.218 56.5489H120.349L116.481 47.8184L112.613 56.5489H113.744L114.981 53.6269L115.077 53.413L116.481 50.1109Z" fill="#3D4248"/>
<path d="M121.955 52.3915C121.955 51.9085 122.038 51.469 122.204 51.073C122.371 50.6692 122.597 50.3247 122.883 50.0396C123.176 49.7466 123.506 49.521 123.871 49.3626C124.244 49.2042 124.636 49.125 125.049 49.125C125.446 49.125 125.807 49.1765 126.132 49.2794C126.465 49.3824 126.767 49.5289 127.037 49.7189C127.306 49.9011 127.537 50.1149 127.727 50.3604V49.03C127.378 48.7212 126.997 48.4915 126.584 48.3411C126.172 48.1906 125.66 48.1154 125.049 48.1154C124.47 48.1154 123.926 48.2223 123.418 48.4361C122.919 48.642 122.478 48.9389 122.097 49.327C121.716 49.7071 121.419 50.1584 121.205 50.6811C120.99 51.2037 120.883 51.7739 120.883 52.3915C120.883 53.0092 120.99 53.5793 121.205 54.102C121.419 54.6246 121.716 55.08 122.097 55.468C122.478 55.8481 122.919 56.145 123.418 56.3588C123.926 56.5647 124.47 56.6677 125.049 56.6677C125.66 56.6677 126.172 56.5924 126.584 56.442C126.997 56.2915 127.378 56.0619 127.727 55.7531V54.4227C127.537 54.6682 127.306 54.8859 127.037 55.076C126.767 55.2581 126.465 55.4007 126.132 55.5036C125.807 55.6066 125.446 55.658 125.049 55.658C124.636 55.658 124.244 55.5788 123.871 55.4205C123.506 55.2621 123.176 55.0404 122.883 54.7553C122.597 54.4623 122.371 54.1178 122.204 53.7219C122.038 53.318 121.955 52.8746 121.955 52.3915Z" fill="#3D4248"/>
<path d="M136.053 48.2342V56.5489H137.065V48.2342H136.053ZM129.864 48.2342V56.5489H130.876V48.2342H129.864ZM130.424 52.5103H132.126C132.483 52.5103 132.796 52.5697 133.066 52.6885C133.344 52.7993 133.558 52.9696 133.709 53.1992C133.867 53.4289 133.947 53.714 133.947 54.0545C133.947 54.395 133.867 54.6801 133.709 54.9097C133.558 55.1393 133.344 55.3136 133.066 55.4323C132.796 55.5432 132.483 55.5986 132.126 55.5986H130.424V56.5489H132.126C132.665 56.5489 133.145 56.4499 133.566 56.2519C133.994 56.046 134.331 55.757 134.577 55.3848C134.831 55.0047 134.958 54.5613 134.958 54.0545C134.958 53.5398 134.831 53.0963 134.577 52.7241C134.331 52.3519 133.994 52.0669 133.566 51.8689C133.145 51.663 132.665 51.5601 132.126 51.5601H130.424V52.5103Z" fill="#3D4248"/>
</g>
<defs>
<clipPath id="clip0_662_12392">
<rect width="160" height="57" fill="white"/>
</clipPath>
</defs>
</svg>
