<svg width="40" height="45" viewBox="0 0 40 45" fill="none" xmlns="http://www.w3.org/2000/svg">
<g clip-path="url(#clip0_1070_12789)">
<mask id="mask0_1070_12789" style="mask-type:luminance" maskUnits="userSpaceOnUse" x="0" y="0" width="40" height="45">
<path d="M40 0H0V45H40V0Z" fill="white"/>
</mask>
<g mask="url(#mask0_1070_12789)">
<path fill-rule="evenodd" clip-rule="evenodd" d="M24.8089 39.4181C33.5319 37.265 40 29.3879 40 20C40 8.9543 31.0457 0 20 0C8.9543 0 0 8.9543 0 20C0 29.3879 6.46821 37.2651 15.1912 39.4181C15.804 39.6381 17.0749 40.3088 18.5 42.314C19.0081 43.0289 19.3533 43.6147 19.5831 44.0548C19.7222 44.3211 20.2778 44.3211 20.4169 44.0548C20.6467 43.6147 20.9919 43.0289 21.5 42.314C22.9252 40.3088 24.1961 39.638 24.8089 39.4181Z" fill="#E4332C"/>
<path fill-rule="evenodd" clip-rule="evenodd" d="M15.0545 8.09998C13.0903 8.09998 11.664 9.84337 11.664 11.7775V15.9979C9.6023 16.0389 8.10156 17.8845 8.10156 19.9446C8.10156 21.3568 8.81451 22.6342 9.88776 23.3377V26.8911C9.88776 28.0568 10.7553 29.1799 12.033 29.1799H12.1811L11.2058 32.0936L12.9126 32.665L14.0793 29.1799H25.9238L27.0905 32.665L28.7973 32.0936L27.8221 29.1799H27.8437C29.1215 29.1799 29.9889 28.0568 29.9889 26.8911V23.4168C31.1397 22.7331 31.9016 21.4102 31.9016 19.9446C31.9016 17.8845 30.4009 16.039 28.3393 15.9979V11.7775C28.3393 9.84335 26.9128 8.09998 24.9487 8.09998H15.0545ZM13.464 11.7775C13.464 10.6488 14.2632 9.89998 15.0545 9.89998H24.9487C25.74 9.89998 26.5393 10.6488 26.5393 11.7775V16.4707C25.3811 17.1548 24.645 18.4907 24.645 19.9446V23.4183L15.3591 23.4182L15.3666 19.9457V19.9446C15.3666 18.4879 14.6243 17.1527 13.464 16.4698V11.7775ZM9.90156 19.9446C9.90156 18.6665 10.8094 17.7972 11.7341 17.7972C12.6585 17.7972 13.5663 18.6669 13.5666 19.9446L13.5554 25.2182L26.445 25.2183V19.9446C26.445 18.6628 27.3477 17.7972 28.269 17.7972C29.1938 17.7972 30.1016 18.6665 30.1016 19.9446C30.1016 20.9468 29.4936 21.7472 28.781 22.0066L28.1889 22.2222V26.8911C28.1889 27.2481 27.9516 27.3799 27.8437 27.3799H12.033C11.925 27.3799 11.6878 27.2481 11.6878 26.8911V22.2113L11.1431 21.9773C10.4668 21.6865 9.90156 20.9004 9.90156 19.9446Z" fill="white"/>
</g>
</g>
<defs>
<clipPath id="clip0_1070_12789">
<rect width="40" height="45" fill="white"/>
</clipPath>
</defs>
</svg>
